<svg width="24" height="20" viewBox="0 0 24 20" fill="none" xmlns="http://www.w3.org/2000/svg">
<path d="M24 2.30654C23.1169 2.69873 22.168 2.96203 21.1724 3.0827C22.1899 2.47384 22.9688 1.50844 23.3363 0.359283C22.3846 0.924262 21.3288 1.33291 20.2098 1.55506C19.313 0.59789 18.0322 0 16.6171 0C13.8965 0 11.6915 2.20232 11.6915 4.923C11.6915 5.3097 11.7353 5.68544 11.8176 6.04473C7.72575 5.83903 4.09736 3.8808 1.67021 0.899578C1.24786 1.62637 1.00377 2.47384 1.00377 3.37616C1.00377 5.08481 1.87316 6.59051 3.19232 7.47363C2.38601 7.44895 1.62633 7.22679 0.962633 6.85654V6.91962C0.962633 9.3057 2.66027 11.2941 4.9119 11.7466C4.50051 11.8591 4.06445 11.9194 3.61467 11.9194C3.29654 11.9194 2.98937 11.8892 2.69044 11.8316C3.31574 13.7871 5.13404 15.2105 7.28694 15.2517C5.60302 16.5709 3.48303 17.358 1.17381 17.358C0.77614 17.358 0.386699 17.3361 0 17.2895C2.18032 18.6854 4.76654 19.5 7.54748 19.5C16.6034 19.5 21.5564 11.9989 21.5564 5.49346C21.5564 5.27954 21.5509 5.06835 21.5427 4.85717C22.5053 4.16055 23.3418 3.29388 24 2.30654Z" fill="#1B1A1A"/>
</svg>
